<svg id="Layer_1" data-name="Layer 1" xmlns="http://www.w3.org/2000/svg" viewBox="0 0 1083.03 1142.63"><defs><style>.cls-1{fill:#fff;}.cls-2{fill:none;}</style></defs><title>Untitled-3</title><path class="cls-1" d="M38.54,1511.54q1.61-4.1,4.61-10t7.25-13.83q4.39-8.05,7.47-14t4.68-9.74q1-2.34,2.05-4.61t2.2-4.61a23.54,23.54,0,0,0,2.34-9.37q0-6.15-3.08-6.15-1.9,0-4.24,4.1-1.17,2.05-2.27,3.88t-2.12,3.73a11.44,11.44,0,0,0-.29,1.31,9.63,9.63,0,0,0,.8,2.78,9.56,9.56,0,0,1,.81,3.22,3.89,3.89,0,0,1-1.17,2.71,3.69,3.69,0,0,1-2.78,1.24q-1.91,0-7.91-5.56A6.07,6.07,0,0,1,45,1452q0-3.51,2.64-8.34a29.27,29.27,0,0,1,19.32-15.23A10.65,10.65,0,0,1,70,1428q6.73,0,8.78,6.15a30,30,0,0,1,1.32,8.93,48.29,48.29,0,0,1-3.51,16.69l-3.51,7.91q-1.76,4-3.37,7.9-1,2.2-2.85,5.78t-4.61,8.56a69.18,69.18,0,0,0-7,14.64,43,43,0,0,0,4.47.15h8.71a53.47,53.47,0,0,1,13,1.32q4.1,1,4.1,5.71a4.18,4.18,0,0,1-.44,1.9q-1.17,2.64-6.88,3.37-2.49.29-5.42,0.44t-6.3.15q-2.34,0-4.1-.07c-1.17-.05-2.25-0.07-3.22-0.07s-1.78,0-2.42.07-1.15.07-1.54,0.07l-3.51.22c-0.88,0-1.51.07-1.9,0.07Q40.88,1517.84,38.54,1511.54Z" transform="translate(-38.16 -418.98)"/><path class="cls-1" d="M89.93,1505.25q0-5.85,3.37-13.76l6.73-13a23.86,23.86,0,0,1,2.2-3.51q1.76-2.49,4.68-6.74,4.39-5.71,4.68-10.54v-1.17a48.75,48.75,0,0,0-.37-5.49,64.4,64.4,0,0,0-1.25-7q-1-4.68-1.61-8.2t-0.73-5.71v-0.73a14,14,0,0,1,3.22-9.37,5.55,5.55,0,0,1,4.25-2.2,15.7,15.7,0,0,1,2.56.37,15.41,15.41,0,0,0,2.85.37,7.23,7.23,0,0,0,4.54-1.46,6.54,6.54,0,0,1,4-1.17,8.74,8.74,0,0,1,7.17,3.51,12.42,12.42,0,0,1,2.78,7.91q0,3.66-2.49,9.51l-4.83,9.22q-2.34,4.69-4.25,8.27t-3.37,5.93a93.54,93.54,0,0,1,3.59,10.47q1.68,5.93,3.29,13.4,0.73,3.37,1.1,5.78a27.07,27.07,0,0,1,.37,3.73,15.94,15.94,0,0,1-1.46,7.17,35.8,35.8,0,0,1-1.9,5.42,11.55,11.55,0,0,1-2.49,4.39q-3.22,3.22-12,8.05a15,15,0,0,1-7.76,1.9,17.7,17.7,0,0,1-8.93-2.34q-7.76-4.1-7.91-12.29v-0.73Zm23.72,1.9a36.47,36.47,0,0,0,6.3-8.05,12.87,12.87,0,0,0,1.61-6.3,20.78,20.78,0,0,0-1-6.29c-0.2-1.07-.44-2.12-0.73-3.15s-0.59-2.07-.88-3.15-1.12-3.13-2.49-6.44q-2.49,3.51-4.9,7t-4.9,7.17q-6,9.08-6,14.49a12.23,12.23,0,0,0,2.64,7.47,3.62,3.62,0,0,0,3.07,1.61Q109.4,1511.54,113.64,1507.15Zm9.52-68.22a7.22,7.22,0,0,0,1.17-3.22,4.36,4.36,0,0,0-.59-2.2q-1.61-3.07-3.51-3.08a1.72,1.72,0,0,0-1.76,1.32,8.78,8.78,0,0,0-.29,2.63V1436a6.84,6.84,0,0,0,.29,1.9q0.58,4.25,2.2,5.42Z" transform="translate(-38.16 -418.98)"/><path class="cls-1" d="M187.86,1438.78a5.28,5.28,0,0,1-1.9-3.51,8.62,8.62,0,0,1,.29-1.46,3.59,3.59,0,0,1,3.22-2l3.81-.44q12.44,2.64,25.77,13.76a30.45,30.45,0,0,1,5.71,6.15q7,10.4,7,19.47a19.76,19.76,0,0,1-1.9,8.93c-0.49,1.08-1,2.2-1.39,3.37s-0.9,2.29-1.39,3.37a27.8,27.8,0,0,1-3.81,6.29l-4.54,5.71q-2.19,2.78-4.54,5.56a53,53,0,0,1-10.1,9.66q-1.46,1.76-3.15,3.51a4.74,4.74,0,0,1-3.29,1.76,12.12,12.12,0,0,1-3.37-.81,5.3,5.3,0,0,1-3.22-2.56q-0.44-6.15-.44-13.17,0-3.66.15-8.93t0.44-12.44q0.29-7.17.44-12.44t0.15-8.93q0-4.68-.22-9.08t-0.51-8.34Zm15.22,60.75q16.54-16.54,16.54-31.47c0-.68,0-1.36-0.07-2s-0.12-1.36-.22-2q-1.32-9.23-15.66-16.25-0.3,8.34-.51,16.91t-0.22,17.79v8.49Q202.94,1495.15,203.08,1499.54Z" transform="translate(-38.16 -418.98)"/><path class="cls-1" d="M289.45,1509.35q0.44,1.17.88,2.41a7.22,7.22,0,0,1,.44,2.42,2.73,2.73,0,0,1-.66,1.9,4.88,4.88,0,0,1-1.61,1.17,9.43,9.43,0,0,1-2,.66,9.13,9.13,0,0,1-1.9.22q-2.93,0-4.83-3.29a30.52,30.52,0,0,1-3.07-8.2q-1.18-4.91-2-10.39t-1.54-9.88a26.08,26.08,0,0,1-2.85,7.76,47.94,47.94,0,0,1-6.08,9,42.5,42.5,0,0,1-8.05,7.39,15.25,15.25,0,0,1-8.78,3.08,10.92,10.92,0,0,1-5.78-1.39,9.64,9.64,0,0,1-3.44-3.44,13.89,13.89,0,0,1-1.61-4.61,28.14,28.14,0,0,1-.44-4.76,38.41,38.41,0,0,1,2.42-11.93,67.51,67.51,0,0,1,6.59-13.83,49.75,49.75,0,0,1,9.66-11.49q5.49-4.75,11.64-4.76a12.09,12.09,0,0,1,3,.44,35,35,0,0,1,3.44,1.1,21.56,21.56,0,0,1,3.37,1.61,31.22,31.22,0,0,1,2.78,1.83,10.17,10.17,0,0,1,3.37,5.56,57.25,57.25,0,0,1,1.32,7.32q1,7.32,1.61,13.25a89.72,89.72,0,0,0,2.2,12.52l0.88,5.42Zm-41.28-7.62a0.29,0.29,0,0,0,.07.22,0.31,0.31,0,0,1,.07.22q1.9-.14,4.39-2.56a47,47,0,0,0,5-5.78,71.63,71.63,0,0,0,4.61-7.1,42,42,0,0,0,3.15-6.66c0.39-.88.85-1.85,1.39-2.93s1.07-2.17,1.61-3.29a32.06,32.06,0,0,0,1.32-3.15,7.78,7.78,0,0,0,.51-2.49c-0.49-.2-0.93-0.39-1.32-0.58a2.9,2.9,0,0,0-1.32-.29,7.86,7.86,0,0,0-5.71,2.49,28.25,28.25,0,0,0-4.32,5.56,44.86,44.86,0,0,0-3,5.93,35.79,35.79,0,0,1-1.61,3.58,44.31,44.31,0,0,0-3.44,7.9,26.29,26.29,0,0,0-1.39,8.2v0.73Z" transform="translate(-38.16 -418.98)"/><path class="cls-1" d="M312,1483q0,2.05.07,5a49,49,0,0,0,.51,5.93,31.53,31.53,0,0,0,1.24,5.42,6.54,6.54,0,0,0,2.27,3.44,10,10,0,0,0,5-4,34.47,34.47,0,0,0,3.51-6.66,69.27,69.27,0,0,0,2.49-7.39q1-3.74,1.76-6.22a62.14,62.14,0,0,0,.59-6.81,66.06,66.06,0,0,1,.66-7.32,19.24,19.24,0,0,1,1.68-5.78,3.85,3.85,0,0,1,3.66-2.34,9,9,0,0,1,4.68,1.32,5.35,5.35,0,0,1,2.64,3.81q-0.59,8.34-.81,14.42t-0.22,10q0,1.31.07,3.51c0,1.46.12,3.05,0.22,4.76s0.17,3.46.22,5.27,0.07,3.49.07,5a95.67,95.67,0,0,1-3.73,27.81,62.08,62.08,0,0,1-12.52,22.54q-1.32,1-2.78,2.2a22.51,22.51,0,0,1-3.37,2.2,22.91,22.91,0,0,1-4.47,1.76,21.66,21.66,0,0,1-5.93.73,7.78,7.78,0,0,1-2.12-.36,8.61,8.61,0,0,1-2.34-1.1,6.55,6.55,0,0,1-1.83-1.83,4.26,4.26,0,0,1-.73-2.42c0-.58.63-1.2,1.9-1.83s2.78-1.34,4.54-2.12,3.54-1.66,5.34-2.64a15.53,15.53,0,0,0,4.47-3.51,55.66,55.66,0,0,0,9.22-17.94,70.86,70.86,0,0,0,2.64-19.69v-2.12a13.9,13.9,0,0,1,.15-2,1.17,1.17,0,0,0-.73-0.15,15.78,15.78,0,0,1-2.49,4,27.2,27.2,0,0,1-3.59,3.51,19.39,19.39,0,0,1-4,2.56,9.16,9.16,0,0,1-3.81,1,11.14,11.14,0,0,1-8.64-3.51,23.52,23.52,0,0,1-4.9-8.49,45.58,45.58,0,0,1-2.2-10.39q-0.51-5.41-.51-9.22c0-.58,0-1.17.07-1.76s0.07-1.17.07-1.76c0-1.66-.05-3.24-0.15-4.76s-0.15-3.1-.15-4.76c0-1.17,0-2.51.15-4a20.26,20.26,0,0,1,.73-4.32,11.78,11.78,0,0,1,1.54-3.44,3,3,0,0,1,2.56-1.39q3.36,0,4.83,1.32a6.09,6.09,0,0,1,1.9,3.29,19.85,19.85,0,0,1,.44,4.32,18.92,18.92,0,0,0,.44,4.24q-0.15,2.05-.22,5.2t-0.07,5.05V1483Z" transform="translate(-38.16 -418.98)"/><path class="cls-1" d="M374.07,1483.29q2.93,5.56,5.42,11.2a31.07,31.07,0,0,1,2.49,12.66,18.89,18.89,0,0,1-4.68,12.59,16.25,16.25,0,0,1-5.27,4,15.13,15.13,0,0,1-6.59,1.46,8.05,8.05,0,0,1-5.64-2.42,8.52,8.52,0,0,1-2.85-5.49,6.56,6.56,0,0,1,1.1-1.69,5.34,5.34,0,0,1,2.27-1,5.05,5.05,0,0,0,3.51,1.76,5.68,5.68,0,0,0,4.39-2.2,8.19,8.19,0,0,0,1.9-5.56,4.35,4.35,0,0,0-.15-1.46,64.66,64.66,0,0,0-4.1-11.93q-2.49-5.34-4.91-10t-4.17-8.86a21.54,21.54,0,0,1-1.76-8.42,46.61,46.61,0,0,1,.59-7.25,26.66,26.66,0,0,1,2-7,14.84,14.84,0,0,1,3.88-5.27,9.29,9.29,0,0,1,6.22-2,4,4,0,0,1,.81.07,4,4,0,0,0,.81.07,3,3,0,0,1,2.49,1.54,14,14,0,0,1,1.46,2.71,2.23,2.23,0,0,1-.81,1.83A20.34,20.34,0,0,0,371,1454a15.68,15.68,0,0,0-2.56,5.2,21.15,21.15,0,0,0-.81,5.78v3.51a8.91,8.91,0,0,0,.73,2.93q0.73,1.9,1.68,4t1.9,4q1,1.83,1.54,2.71Z" transform="translate(-38.16 -418.98)"/><path class="cls-1" d="M438.63,1418.88a18.28,18.28,0,0,1,.44-3.81l1.9-1a4.28,4.28,0,0,1,1.9-.37,8,8,0,0,1,4,.88,6.34,6.34,0,0,1,2.34,2.2,8.49,8.49,0,0,1,1.1,3,19.13,19.13,0,0,1,.29,3.29q0,3.07.15,5.35t0.15,4.47q0,2.34-.07,4.61t-0.07,4.61q0,1.61-.07,3.37c0,1.17-.07,2.39-0.07,3.66a8.15,8.15,0,0,0,.15,1.61,1.11,1.11,0,0,0,1.32.73,16.55,16.55,0,0,0,6.66-1.24,16.53,16.53,0,0,1,6.66-1.25,2.77,2.77,0,0,1,2.78,1.61,7.77,7.77,0,0,1,.73,3.22,4.67,4.67,0,0,1-.88,3,5.74,5.74,0,0,1-2.2,1.69,16.3,16.3,0,0,1-2.85,1c-1,.24-2,0.51-3,0.81a23.67,23.67,0,0,1-3.15,1.1,23.72,23.72,0,0,0-3.44,1.24,9.35,9.35,0,0,0-2.78,1.9,4,4,0,0,0-1.17,2.93c0,0.68,0,1.31.07,1.9s0.07,1.17.07,1.76,0,1.19-.07,1.83-0.07,1.29-.07,2a102.8,102.8,0,0,0,1,13.69q0.95,7.1,2.12,13.69,0.44,2.05,1,4.1a14,14,0,0,1,.59,3.81,4.65,4.65,0,0,1-1.32,3.66,7.23,7.23,0,0,1-2.93,1.61,15.24,15.24,0,0,1-1.76.29,5.72,5.72,0,0,1-3.73-1.39,12.37,12.37,0,0,1-2.85-3.44,29.84,29.84,0,0,1-1.25-5.56q-0.51-3.51-.66-6.44-0.44-7.17-.59-14.27t-0.29-14.28a7.9,7.9,0,0,0-.07-1.1,3.75,3.75,0,0,0-.37-1.1,15.52,15.52,0,0,0-4.39,1.32,9.07,9.07,0,0,1-4.1.88,7,7,0,0,1-5-1.9,42.66,42.66,0,0,1-3.08-3.08,15.1,15.1,0,0,1,.73-4.1,19.92,19.92,0,0,1,3.51-1l3.15-.59c1-.19,2.07-0.44,3.15-0.73a16.89,16.89,0,0,0,3.51-1.46q2.34,0,2.71-1.83a16.53,16.53,0,0,0,.37-3.15q0-2.64-.07-4.47t-0.07-5.2q0-2.2-.07-4.47c-0.05-1.51-.07-3-0.07-4.47v-15.08Z" transform="translate(-38.16 -418.98)"/><path class="cls-1" d="M484.89,1512.86a7.57,7.57,0,0,1-4.47-1.39q-2-1.39-4.17-2.71a19.92,19.92,0,0,1-7.47-7.32,21.81,21.81,0,0,1-2.64-11.13,33,33,0,0,1,1.1-7.69q1.1-4.46,2-8.27a21.54,21.54,0,0,1,2-4.47,32.08,32.08,0,0,1,4-5.56,28.69,28.69,0,0,1,5.49-4.76,11.24,11.24,0,0,1,6.3-2,4.71,4.71,0,0,1,2.64.88,25.06,25.06,0,0,0,4.25,2.2l4.47,1.76c1.51,0.58,3,1.22,4.47,1.9a18.4,18.4,0,0,1,4.1,2.63,9,9,0,0,1,2.49,3.22q0.88,1.9,1.76,3.66a8.52,8.52,0,0,1,.88,3q0.14,1.54.15,3.15v2.78a22.82,22.82,0,0,1-1.83,8.42,53.56,53.56,0,0,1-4,7.54q-1.17,1.9-3.07,4.39a38.35,38.35,0,0,1-4.25,4.69,29,29,0,0,1-4.9,3.73A10,10,0,0,1,489,1513c-0.49,0-1,0-1.54-.07s-1.1-.07-1.68-0.07h-0.88Zm14.35-35q0-4.24-3.08-6.15a12.55,12.55,0,0,0-6.73-1.9,6.46,6.46,0,0,0-5,2.27,20.76,20.76,0,0,0-3.51,5.56,30,30,0,0,0-2.12,7,38.23,38.23,0,0,0-.66,6.51q0,0.58.22,2.34a21.35,21.35,0,0,0,.81,3.66,10.89,10.89,0,0,0,1.68,3.37,3.41,3.41,0,0,0,2.86,1.46,8,8,0,0,0,2.93-.51q1.32-.51,2.93-1.24a14.33,14.33,0,0,0,4.1-4,23.79,23.79,0,0,0,2.85-5.42,40.84,40.84,0,0,0,1.76-6.15,61.92,61.92,0,0,0,1-6.15v-0.73Z" transform="translate(-38.16 -418.98)"/><path class="cls-1" d="M607.71,1509.35q0.44,1.17.88,2.41a7.22,7.22,0,0,1,.44,2.42,2.73,2.73,0,0,1-.66,1.9,4.88,4.88,0,0,1-1.61,1.17,9.43,9.43,0,0,1-2,.66,9.13,9.13,0,0,1-1.9.22q-2.93,0-4.83-3.29a30.52,30.52,0,0,1-3.07-8.2q-1.18-4.91-2-10.39t-1.54-9.88a26.08,26.08,0,0,1-2.85,7.76,47.94,47.94,0,0,1-6.08,9,42.5,42.5,0,0,1-8.05,7.39,15.25,15.25,0,0,1-8.78,3.08,10.92,10.92,0,0,1-5.78-1.39,9.64,9.64,0,0,1-3.44-3.44,13.89,13.89,0,0,1-1.61-4.61,28.14,28.14,0,0,1-.44-4.76,38.41,38.41,0,0,1,2.42-11.93,67.51,67.51,0,0,1,6.59-13.83,49.75,49.75,0,0,1,9.66-11.49q5.49-4.75,11.64-4.76a12.09,12.09,0,0,1,3,.44,35,35,0,0,1,3.44,1.1,21.56,21.56,0,0,1,3.37,1.61,31.22,31.22,0,0,1,2.78,1.83,10.17,10.17,0,0,1,3.37,5.56,57.25,57.25,0,0,1,1.32,7.32q1,7.32,1.61,13.25a89.72,89.72,0,0,0,2.2,12.52l0.88,5.42Zm-41.28-7.62a0.29,0.29,0,0,0,.07.22,0.31,0.31,0,0,1,.07.22q1.9-.14,4.39-2.56a47,47,0,0,0,5-5.78,71.63,71.63,0,0,0,4.61-7.1,42,42,0,0,0,3.15-6.66c0.39-.88.85-1.85,1.39-2.93s1.07-2.17,1.61-3.29a32.06,32.06,0,0,0,1.32-3.15,7.78,7.78,0,0,0,.51-2.49c-0.49-.2-0.93-0.39-1.32-0.58a2.9,2.9,0,0,0-1.32-.29,7.86,7.86,0,0,0-5.71,2.49,28.25,28.25,0,0,0-4.32,5.56,44.86,44.86,0,0,0-3,5.93,35.79,35.79,0,0,1-1.61,3.58,44.31,44.31,0,0,0-3.44,7.9,26.29,26.29,0,0,0-1.39,8.2v0.73Z" transform="translate(-38.16 -418.98)"/><path class="cls-1" d="M660,1504.08q0.58-7.47.66-13.47a95.57,95.57,0,0,1,.66-10.69,9,9,0,0,1-2.42-2,4,4,0,0,1-1-2.63,4.13,4.13,0,0,1,1.68-3.08,7.36,7.36,0,0,1,3-1.76q0.58-7,.88-13.61t0.29-13.17q0-3.66-.15-7.25a53.93,53.93,0,0,0-.73-7q-6.45-1.17-8.64-6.15,0-3.51,2.56-4.54a13.93,13.93,0,0,1,5.2-1c0.68,0,1.9,0,3.66.07a52.46,52.46,0,0,1,6.08.58,59.27,59.27,0,0,1,7.32,1.61,44.29,44.29,0,0,1,7.69,3q11.12,5.86,15.37,11.42a18.5,18.5,0,0,1,4.24,11.28,11.92,11.92,0,0,1-.07,1.24c0,0.44-.12.9-0.22,1.39a20.57,20.57,0,0,1-3.07,7,35.27,35.27,0,0,1-5.2,6,57.16,57.16,0,0,1-6.51,5.2q-3.51,2.41-7.17,4.76l-2.63,1.76a8.22,8.22,0,0,0,2.78,2.85c1.07,0.63,2.34,1.29,3.81,2l1.46,0.44q12,8.05,12,18.88a23.9,23.9,0,0,1-4.76,14.42,43.27,43.27,0,0,1-13.69,11.64l-14.05,8.2a6,6,0,0,1-3.51,1q-4.54,0-5.56-4v-24.45ZM674,1516.22q1.61-1.46,3.07-2.56t2.93-2.27a28.35,28.35,0,0,0,6.22-6.08,21.38,21.38,0,0,0,2.85-7c0.1-.49.17-1,0.22-1.54s0.07-1,.07-1.54a11.15,11.15,0,0,0-3.08-7.76,36,36,0,0,0-6.15-3.51,11,11,0,0,0-3.66-1H674.9a5.6,5.6,0,0,0-1.76.29q-0.29,6.59-.58,12.15t-0.29,11.13q0,2.34.22,4.61t0.51,5h1Zm2.2-53.43c0.49-.2,1.17-0.51,2-1a17.51,17.51,0,0,0,2.34-1.39l2.64-2.2a16.17,16.17,0,0,0,4-2.86,22.81,22.81,0,0,0,3.29-4,22.41,22.41,0,0,0,2.27-4.47,12.88,12.88,0,0,0,.88-4.54,4.92,4.92,0,0,0-.07-0.73,4.47,4.47,0,0,1-.07-0.73q-0.73-5.41-9.22-8.35c-0.2-.09-0.56-0.29-1.1-0.58l-1.83-1a16.88,16.88,0,0,0-2.12-1,5,5,0,0,0-1.68-.44,4.29,4.29,0,0,0-.81.07l-1.1.22a19.65,19.65,0,0,0-.15,2.49v2.78q0,5.86-.29,13.1t-0.29,15.15Z" transform="translate(-38.16 -418.98)"/><path class="cls-1" d="M710.18,1487.68a44.16,44.16,0,0,1,1.39-10.91,33.81,33.81,0,0,1,4.17-9.88,23.3,23.3,0,0,1,6.88-7.1,16.86,16.86,0,0,1,9.52-2.71,17.48,17.48,0,0,1,6.66,1.17,14.35,14.35,0,0,1,4.76,3.07,12.68,12.68,0,0,1,2.85,4.32,13.65,13.65,0,0,1,1,5,17.71,17.71,0,0,1-4.83,12.15,17.8,17.8,0,0,1-5.78,4,20.77,20.77,0,0,1-7.83,1.68,12.29,12.29,0,0,1-3.37-.15,34.62,34.62,0,0,1-3.37-.88,6.33,6.33,0,0,0-.15,1.24v0.81a19.61,19.61,0,0,0,1.76,8.49,14.43,14.43,0,0,0,3.51,4.61,9.64,9.64,0,0,0,3.66,2,12.32,12.32,0,0,0,2.34.44,13.06,13.06,0,0,0,7.54-2l6.66-4.54,1.61,0.66a3.91,3.91,0,0,1,1.61,1.39A12.42,12.42,0,0,0,751,1502a6.07,6.07,0,0,1,.15,1.54,6.86,6.86,0,0,1-1.1,3.44,13,13,0,0,1-2.12,2.42,20,20,0,0,1-7.1,4.17,31.66,31.66,0,0,1-8.56,1,21,21,0,0,1-5.78-1,36.59,36.59,0,0,1-5.78-2.2,27.14,27.14,0,0,1-5.49-5.27,22.21,22.21,0,0,1-3.08-5.56,25.68,25.68,0,0,1-1.46-6.08Q710.33,1491.19,710.18,1487.68Zm12.74-7.91a10.8,10.8,0,0,0,1.83.22q1.24,0.07,2,.07,5,0,7.68-2.49a7.85,7.85,0,0,0,2.71-6,6.75,6.75,0,0,0-1.17-3.81,3.68,3.68,0,0,0-3.22-1.76,13.75,13.75,0,0,0-2.85.29,3.17,3.17,0,0,0-2.12,1.46,18.11,18.11,0,0,1-1.32,1.46,7.81,7.81,0,0,0-1.39,2,20.26,20.26,0,0,0-1.24,3.29A27.65,27.65,0,0,0,722.92,1479.77Z" transform="translate(-38.16 -418.98)"/><path class="cls-1" d="M769.47,1418.88a18.28,18.28,0,0,1,.44-3.81l1.9-1a4.29,4.29,0,0,1,1.9-.37,8,8,0,0,1,4,.88,6.31,6.31,0,0,1,2.34,2.2,8.46,8.46,0,0,1,1.1,3,19.13,19.13,0,0,1,.3,3.29q0,3.07.15,5.35t0.15,4.47q0,2.34-.07,4.61t-0.07,4.61q0,1.61-.07,3.37c0,1.17-.07,2.39-0.07,3.66a8,8,0,0,0,.15,1.61,1.11,1.11,0,0,0,1.31.73,16.56,16.56,0,0,0,6.66-1.24,16.53,16.53,0,0,1,6.66-1.25,2.77,2.77,0,0,1,2.78,1.61,7.74,7.74,0,0,1,.73,3.22,4.66,4.66,0,0,1-.88,3,5.73,5.73,0,0,1-2.2,1.69,16.35,16.35,0,0,1-2.85,1c-1,.24-2,0.51-3,0.81a23.76,23.76,0,0,1-3.15,1.1,23.75,23.75,0,0,0-3.44,1.24,9.34,9.34,0,0,0-2.78,1.9,4,4,0,0,0-1.17,2.93c0,0.68,0,1.31.07,1.9s0.07,1.17.07,1.76,0,1.19-.07,1.83-0.07,1.29-.07,2a103.1,103.1,0,0,0,1,13.69q1,7.1,2.12,13.69,0.44,2.05,1,4.1a14,14,0,0,1,.59,3.81,4.66,4.66,0,0,1-1.32,3.66,7.25,7.25,0,0,1-2.93,1.61,15.18,15.18,0,0,1-1.76.29,5.71,5.71,0,0,1-3.73-1.39,12.37,12.37,0,0,1-2.85-3.44,29.68,29.68,0,0,1-1.25-5.56q-0.51-3.51-.66-6.44-0.44-7.17-.59-14.27t-0.29-14.28a8.19,8.19,0,0,0-.07-1.1,3.86,3.86,0,0,0-.37-1.1,15.54,15.54,0,0,0-4.39,1.32,9.06,9.06,0,0,1-4.1.88,7,7,0,0,1-5-1.9,42.29,42.29,0,0,1-3.08-3.08,15.16,15.16,0,0,1,.73-4.1,20,20,0,0,1,3.51-1l3.15-.59c1-.19,2.07-0.44,3.15-0.73a16.93,16.93,0,0,0,3.51-1.46q2.34,0,2.71-1.83a16.52,16.52,0,0,0,.36-3.15q0-2.64-.07-4.47t-0.07-5.2q0-2.2-.07-4.47c-0.05-1.51-.07-3-0.07-4.47v-15.08Z" transform="translate(-38.16 -418.98)"/><path class="cls-1" d="M812.95,1418.88a18.28,18.28,0,0,1,.44-3.81l1.9-1a4.28,4.28,0,0,1,1.9-.37,8.06,8.06,0,0,1,4,.88,6.37,6.37,0,0,1,2.34,2.2,8.53,8.53,0,0,1,1.1,3,19.12,19.12,0,0,1,.29,3.29q0,3.07.15,5.35t0.15,4.47q0,2.34-.07,4.61t-0.07,4.61q0,1.61-.07,3.37c0,1.17-.07,2.39-0.07,3.66a8.28,8.28,0,0,0,.15,1.61,1.11,1.11,0,0,0,1.32.73,16.54,16.54,0,0,0,6.66-1.24,16.54,16.54,0,0,1,6.66-1.25,2.77,2.77,0,0,1,2.78,1.61,7.79,7.79,0,0,1,.73,3.22,4.68,4.68,0,0,1-.88,3,5.74,5.74,0,0,1-2.2,1.69,16.26,16.26,0,0,1-2.85,1c-1,.24-2,0.51-3,0.81a23.58,23.58,0,0,1-3.15,1.1,23.7,23.7,0,0,0-3.44,1.24,9.36,9.36,0,0,0-2.78,1.9,4,4,0,0,0-1.17,2.93c0,0.68,0,1.31.07,1.9s0.07,1.17.07,1.76,0,1.19-.07,1.83-0.07,1.29-.07,2a102.5,102.5,0,0,0,1,13.69q0.95,7.1,2.12,13.69,0.44,2.05,1,4.1a14,14,0,0,1,.58,3.81,4.65,4.65,0,0,1-1.32,3.66,7.22,7.22,0,0,1-2.93,1.61,15.31,15.31,0,0,1-1.76.29,5.72,5.72,0,0,1-3.73-1.39,12.37,12.37,0,0,1-2.85-3.44,30,30,0,0,1-1.24-5.56q-0.51-3.51-.66-6.44-0.44-7.17-.58-14.27t-0.29-14.28a7.63,7.63,0,0,0-.07-1.1,3.65,3.65,0,0,0-.37-1.1,15.51,15.51,0,0,0-4.39,1.32,9.07,9.07,0,0,1-4.1.88,7,7,0,0,1-5-1.9,43,43,0,0,1-3.08-3.08,15,15,0,0,1,.73-4.1,19.88,19.88,0,0,1,3.51-1l3.15-.59c1-.19,2.07-0.44,3.15-0.73a16.85,16.85,0,0,0,3.51-1.46q2.34,0,2.71-1.83a16.55,16.55,0,0,0,.37-3.15q0-2.64-.07-4.47t-0.07-5.2q0-2.2-.07-4.47t-0.07-4.47v-15.08Z" transform="translate(-38.16 -418.98)"/><path class="cls-1" d="M841.49,1487.68a44.16,44.16,0,0,1,1.39-10.91,33.81,33.81,0,0,1,4.17-9.88,23.3,23.3,0,0,1,6.88-7.1,16.86,16.86,0,0,1,9.52-2.71,17.48,17.48,0,0,1,6.66,1.17,14.35,14.35,0,0,1,4.76,3.07,12.68,12.68,0,0,1,2.85,4.32,13.65,13.65,0,0,1,1,5,17.71,17.71,0,0,1-4.83,12.15,17.8,17.8,0,0,1-5.78,4,20.77,20.77,0,0,1-7.83,1.68,12.29,12.29,0,0,1-3.37-.15,34.62,34.62,0,0,1-3.37-.88,6.33,6.33,0,0,0-.15,1.24v0.81a19.61,19.61,0,0,0,1.76,8.49,14.43,14.43,0,0,0,3.51,4.61,9.64,9.64,0,0,0,3.66,2,12.32,12.32,0,0,0,2.34.44,13.06,13.06,0,0,0,7.54-2l6.66-4.54,1.61,0.66a3.91,3.91,0,0,1,1.61,1.39,12.42,12.42,0,0,0,.29,1.39,6.07,6.07,0,0,1,.15,1.54,6.86,6.86,0,0,1-1.1,3.44,13,13,0,0,1-2.12,2.42,20,20,0,0,1-7.1,4.17,31.66,31.66,0,0,1-8.56,1,21,21,0,0,1-5.78-1,36.59,36.59,0,0,1-5.78-2.2,27.14,27.14,0,0,1-5.49-5.27,22.21,22.21,0,0,1-3.08-5.56,25.68,25.68,0,0,1-1.46-6.08Q841.64,1491.19,841.49,1487.68Zm12.74-7.91a10.8,10.8,0,0,0,1.83.22q1.24,0.07,2,.07,5,0,7.68-2.49a7.85,7.85,0,0,0,2.71-6,6.75,6.75,0,0,0-1.17-3.81A3.68,3.68,0,0,0,864,1466a13.75,13.75,0,0,0-2.85.29,3.17,3.17,0,0,0-2.12,1.46,18.11,18.11,0,0,1-1.32,1.46,7.81,7.81,0,0,0-1.39,2,20.26,20.26,0,0,0-1.24,3.29A27.65,27.65,0,0,0,854.23,1479.77Z" transform="translate(-38.16 -418.98)"/><path class="cls-1" d="M891.12,1509.93a9.46,9.46,0,0,0,.36-2.71q0.07-2,.07-4.9t-0.07-6q-0.07-3.22-.15-5.93t-0.15-4.69c0-1.32-.07-2.07-0.07-2.27v-4.83q0-3.22-.22-6.44t-0.37-6.44v-0.59a6,6,0,0,0-.58-2.56,6.23,6.23,0,0,1-.58-2.71,7,7,0,0,1,1.61-2.93c0.68-.68,1.9-1,3.66-1a7.18,7.18,0,0,1,4,1,6.34,6.34,0,0,1,2.2,2.34,9.1,9.1,0,0,1,1,3.15c0.15,1.17.27,2.29,0.37,3.37l0.44,7.76a17.21,17.21,0,0,0,3.08-3.44q1.61-2.27,3.37-4.91t3.66-5.12a22.58,22.58,0,0,1,4-4.1,6.54,6.54,0,0,1,2.93-.58,10.57,10.57,0,0,1,5.64,1.32,8.47,8.47,0,0,1,3.29,4.24,7.9,7.9,0,0,1-1.61,3q-1.31,1.68-3,3.51l-3.51,3.81a35.93,35.93,0,0,0-3.15,3.88,41.12,41.12,0,0,0-4.39,5.71,69.34,69.34,0,0,0-4,6.88,68.27,68.27,0,0,0-2.93,6.66,15.35,15.35,0,0,0-1.17,5q0,1.18.07,3.29t0.07,3.3a22.57,22.57,0,0,1-.29,3.58,9.9,9.9,0,0,1-1.17,3.37,7.17,7.17,0,0,1-2.34,2.49,6.88,6.88,0,0,1-3.81,1,6,6,0,0,1-4.47-1.68,5.66,5.66,0,0,1-1.68-4.17v-0.58Z" transform="translate(-38.16 -418.98)"/><path class="cls-1" d="M988.18,1474.36q-5.12-14.2-9.59-24.15t-8.12-16.54a2.35,2.35,0,0,1-.44-1.46,3.86,3.86,0,0,1,1.83-3,6,6,0,0,1,3.58-1.39,8.47,8.47,0,0,1,1.46.44q0.73,0.29,1.68.58a24.2,24.2,0,0,0,2.42.59,58.71,58.71,0,0,1,3.74,6.37q1.83,3.59,3.88,8l6.59,14.93,5.86-17.42a70.38,70.38,0,0,1,7.46-16.69,4.32,4.32,0,0,1,4.1-2,9.36,9.36,0,0,1,6.88,2.78q-2.05,8.35-5.79,19t-9.29,24q-6.59,15.52-10.61,26.13T987.89,1511a23.88,23.88,0,0,0-.73,5.86c0,0.78,0,1.51.08,2.2s0.07,1.27.07,1.76a12.11,12.11,0,0,1-.07,1.32,7.72,7.72,0,0,0-.08.88q-0.44,5.12-5.85,5.12a9.06,9.06,0,0,1-5-1.76q-2.64-1.76-2.64-4.1a76.8,76.8,0,0,1,1.54-11.42,88.48,88.48,0,0,1,3.88-13Z" transform="translate(-38.16 -418.98)"/><path class="cls-1" d="M1031.66,1512.86a7.58,7.58,0,0,1-4.47-1.39q-2-1.39-4.17-2.71a19.91,19.91,0,0,1-7.47-7.32,21.81,21.81,0,0,1-2.64-11.13,33,33,0,0,1,1.1-7.69q1.1-4.46,2-8.27a21.44,21.44,0,0,1,2-4.47,32,32,0,0,1,4-5.56,28.68,28.68,0,0,1,5.49-4.76,11.23,11.23,0,0,1,6.3-2,4.7,4.7,0,0,1,2.63.88,25.11,25.11,0,0,0,4.24,2.2l4.47,1.76c1.51,0.58,3,1.22,4.47,1.9a18.46,18.46,0,0,1,4.1,2.63,9,9,0,0,1,2.49,3.22q0.88,1.9,1.76,3.66a8.44,8.44,0,0,1,.88,3q0.14,1.54.15,3.15v2.78a22.82,22.82,0,0,1-1.83,8.42,53.56,53.56,0,0,1-4,7.54q-1.17,1.9-3.07,4.39a38.66,38.66,0,0,1-4.25,4.69,29,29,0,0,1-4.9,3.73,10,10,0,0,1-5.2,1.54c-0.49,0-1,0-1.54-.07s-1.1-.07-1.68-0.07h-0.88Zm14.35-35q0-4.24-3.07-6.15a12.57,12.57,0,0,0-6.74-1.9,6.46,6.46,0,0,0-5,2.27,20.8,20.8,0,0,0-3.51,5.56,30,30,0,0,0-2.12,7,37.87,37.87,0,0,0-.66,6.51q0,0.58.22,2.34a21.69,21.69,0,0,0,.81,3.66,10.82,10.82,0,0,0,1.69,3.37,3.41,3.41,0,0,0,2.85,1.46,8,8,0,0,0,2.93-.51c0.88-.34,1.85-0.76,2.93-1.24a14.28,14.28,0,0,0,4.1-4,23.65,23.65,0,0,0,2.85-5.42,40.22,40.22,0,0,0,1.76-6.15,60.39,60.39,0,0,0,1-6.15v-0.73Z" transform="translate(-38.16 -418.98)"/><path class="cls-1" d="M1068.41,1471q0-4,.29-7.62a30,30,0,0,1,1.46-7.17,2,2,0,0,1,.81-0.66,9.29,9.29,0,0,1,1.54-.66l1-.29c0.34-.1.76-0.2,1.24-0.3a11.67,11.67,0,0,1,4.69,1.76,4.72,4.72,0,0,1,2.34,4.25,18,18,0,0,1-.44,4.17,18.73,18.73,0,0,0-.44,4.32,45.63,45.63,0,0,1-.36,6.59,28.29,28.29,0,0,0-.37,4.39q0,7,.44,13t0.73,9q2.34-.29,5.2-4a64.53,64.53,0,0,0,5.64-9,116.51,116.51,0,0,0,5.12-11.13q2.34-5.85,3.81-10.39a11.37,11.37,0,0,0,.51-3.81,11,11,0,0,1,.37-3.44,4.56,4.56,0,0,1,2-2.56c1-.68,2.75-1,5.2-1a0.7,0.7,0,0,1,.29.07,0.64,0.64,0,0,0,.29.07,5,5,0,0,1,2.78,1.17,8.9,8.9,0,0,1,2.34,2.34q0,8.64-.51,13.54a82.68,82.68,0,0,0-.51,8.42,65.89,65.89,0,0,0,1,12.08,20.31,20.31,0,0,0,3.15,8.12c0.58,0.68,1.12,1.34,1.61,2a11.22,11.22,0,0,1,1.31,2.27,5.13,5.13,0,0,1-1,2.27,3.89,3.89,0,0,1-1.54,1.17,7.67,7.67,0,0,1-1.9.51,16,16,0,0,0-2,.44,10.71,10.71,0,0,1-5.2-2.63,15,15,0,0,1-3.22-4.61,24.56,24.56,0,0,1-1.83-6q-0.59-3.3-1-6.81l-0.59,1.17q-1.17,2.49-3.15,6.59a62.34,62.34,0,0,1-4.61,8,32.23,32.23,0,0,1-6.08,6.74,11.37,11.37,0,0,1-7.39,2.85,12.26,12.26,0,0,1-6.81-1.68,10.65,10.65,0,0,1-4-5.49,38.79,38.79,0,0,1-1.9-9.81q-0.51-6-.51-14.79a28.82,28.82,0,0,0,.3-4.1V1471Z" transform="translate(-38.16 -418.98)"/><path class="cls-1" d="M49.37,1079.22q1.49-6.73,11.21-12,11.21-6,12.71-12,0.73-3,2.24-20.18t3.74-50.83q-41.11-7.46-41.11-31.39,0.74-21.67,26.16-34.38l47.84-19.43a229.83,229.83,0,0,1,31.39-13.46q17.19-6,38.12-12,18.67-5.22,36.62-9.71t36.62-9c1-.49,4-0.75,9-0.75q20.18,0,47.09,15.7,0.74,3,3.74,11.21c2,5.49,3,9.47,3,12q0,6.72-5.23,9.72-14.21,6-34.38,12.33T231,929q-26.91,7.48-47.09,13.83t-34.38,12.33q-3,9-5.61,30.64t-4.11,56.06q11.95,4.48,27.66,4.48a115.58,115.58,0,0,0,14.57-1.12q8.58-1.12,20.55-2.62t20.55-2.62a115.18,115.18,0,0,1,14.57-1.12q20.92,0,35.88,9,10.46,15,10.46,19.44,0,5.24-5.23,8.22-0.75.75-3.36,3a73.33,73.33,0,0,0-7.1,7.48q-4.48,6-14.95,6-15.69,3-57.55,4.48-35.14,1.51-56.06,9-14.21,52.33-14.2,87.45,0,20.18,6,34.38,30.64,21.69,100.91,21.67c3.48,0,6.84-.11,10.09-0.37s6.84-.37,10.84-0.37,8.22-1.87,12.71-5.61,8.22-5.61,11.21-5.61a5.13,5.13,0,0,0,2.24-.37,5.2,5.2,0,0,1,2.24-.37q17.94,0,23.17,32.14a11.87,11.87,0,0,0,.37,3,12.52,12.52,0,0,1,.37,3,28.3,28.3,0,0,1-6.35,18.31,22.82,22.82,0,0,1-16.82,8.6c-4.48,0-9,.11-13.45.37s-9,.37-13.45.37q-71.76,0-130.06-14.95-20.94-5.23-38.12-23.17t-19.43-40.36q-1.51-16.43-2.62-31.39t-1.12-29.9q0-14.95,1.12-28.78t2.62-26.53q-18.69-13.45-18.69-24.66v-3Z" transform="translate(-38.16 -418.98)"/><path class="cls-1" d="M414.87,1355q-22.42-9.72-22.42-24.66,0-9,11.21-21.68,3-3,14.2-4.48,11.21-.75,14.95-9A151.41,151.41,0,0,0,448.5,1228q0-47.09-48.58-140.52-47.84-92.67-47.84-148,0-45.58,17.94-81.47,20.18-41.1,57.55-59,18.67-8.22,33.63-8.22,31.39,0,47.09,17.19,7.46,7.48,7.47,16.44,0,15-21.68,26.16a14.75,14.75,0,0,1-6.73,1.5c-3,0-5-.25-6-0.75-5.49-2-9.23-3-11.21-3q-4.48,0-9,4.49-40.36,40.36-40.36,98.66a118.22,118.22,0,0,0,6.73,40.36q1.49,3.75,15.7,32.89t41.11,83q35.88,71.76,35.88,121.83,0,41.12-20.18,79.23-6.73,12.7-33.63,32.89-21.69,15.69-38.87,15.7A32.13,32.13,0,0,1,414.87,1355Z" transform="translate(-38.16 -418.98)"/><path class="cls-1" d="M551.64,1310.18q0-29.15,16.44-69.51,22.42-54.55,24.67-79.23,0-6-9.72-13.45-10.47-8.22-10.46-12.71a10.14,10.14,0,0,1,3-7.48q3-4.48,15.7-6.72,12.7-3,14.2-8.22,13.45-36.61,42.6-139,12.7-44.85,23.54-78.11t20.55-57.18q4.48-10.46,18.69-10.46a28.72,28.72,0,0,1,18.69,6.73q20.92,17.94,26.91,53.81,2.24,15,4.48,30.65t3.74,30.65q18.67,88.2,38.12,160.32t39.61,130.43q4.48,12.72,4.49,20.93,0,15-12.71,26.16-12,10.46-17.19,10.47-36.63-6.73-46.34-59-9.72-56.79-24.67-94.93l-50.83,4.48q-29.15,3.75-45.59,17.94-3.75,12-9.34,32.14t-12.33,50.08q-12.72,55.31-24.67,83-3.75,9-14.95,9h-4.86a12.62,12.62,0,0,1-5.61-1.49q-24.67-7.48-26.16-22.43v-6.72Zm181.63-212.27q-1.5-14.95-3.73-30.27t-6-31.77q-3.75-14.95-7.1-29.9t-7.1-29.9q-22.42,62.79-38.87,124.08Q682.43,1097.91,733.27,1097.91Z" transform="translate(-38.16 -418.98)"/><path class="cls-1" d="M897.7,1275.05v-16.45q0-32.13,1.87-73.62t6.35-93.06q11.21-124.07,11.21-180.13,0-19.43-.75-37T914.15,840q9.71-9.71,24.67-9.72,28.39,0,32.89,20.93c0,5,.11,10.22.37,15.7s0.38,11.47.38,17.94q0,29.15-1.5,66.15t-4.49,84.09q-3.75,51.57-4.86,91.94t-1.12,70.26v20.93q19.43-7.46,54.57-31.39,18.67-12.7,31.77-21.3a168.25,168.25,0,0,1,21.3-12.33,96.24,96.24,0,0,0,13.08-1.5,97.9,97.9,0,0,1,13.83-1.49q14.95,0,21.67,12,4.49,9,4.49,14.95a18.82,18.82,0,0,1-4.49,12.7l-87.45,62q-25.42,17.94-47.46,31.39a320.75,320.75,0,0,1-41.49,21.67,19.88,19.88,0,0,1-9,2.25q-10.48,0-19.43-13.46Z" transform="translate(-38.16 -418.98)"/><path class="cls-1" d="M627,602.14c7.66,0,16.33-1.77,25.8-5.27,20.27-7.52,42.13-22.41,61.59-41.86,42-42,58.81-90.83,38.37-111.27a25.33,25.33,0,0,0-3.46-2.92,5.7,5.7,0,0,0-7.38.62L600.81,582.55c-0.11.11-.17,0.28-0.31,0.42s-0.28.17-.42,0.28l-15.49,15.49-60-60.54a51.44,51.44,0,0,0-3.76-68.56l-48.46-48.45a5.75,5.75,0,0,0-8.13,8.14l48.45,48.45a39.74,39.74,0,0,1,3.7,52.16l-80.57-81.27a5.74,5.74,0,1,0-8.16,8.08l80.59,81.3a39.81,39.81,0,0,1-52.05-3.76l-48.45-48.49A5.76,5.76,0,1,0,399.6,494l48.48,48.45a51.35,51.35,0,0,0,68.33,3.9l60.08,60.58L458.57,724.79a5.76,5.76,0,1,0,8.14,8.14L584.56,615.06,701.39,732.9a5.81,5.81,0,0,0,4.1,1.72,5.76,5.76,0,0,0,4.07-9.8L592.7,606.92l12.16-12.15c5.67,4.82,13.14,7.38,22.15,7.38h0ZM746.08,453.53c11.26,15.16-1.46,55-39.8,93.34-18.33,18.32-38.73,32.25-57.46,39.22-15.72,5.84-28.6,6-35.87.62Zm0,0" transform="translate(-38.16 -418.98)"/><rect class="cls-2" x="358.7" width="365.64" height="322.52"/></svg>