<?xml version="1.0" encoding="utf-8"?>
<!-- Generator: Adobe Illustrator 19.2.0, SVG Export Plug-In . SVG Version: 6.00 Build 0)  -->
<svg version="1.1" id="Layer_1" xmlns="http://www.w3.org/2000/svg" xmlns:xlink="http://www.w3.org/1999/xlink" x="0px" y="0px"
	 viewBox="0 0 431 170" style="enable-background:new 0 0 431 170;" xml:space="preserve">
<style type="text/css">
	.st0{fill:#EEEEEE;}
	.st1{clip-path:url(#SVGID_2_);fill:#EEEEEE;}
</style>
<g>
	<g>
		<path class="st0" d="M130.8,87.4c0.3-1.2,1.3-2.3,3.1-3.3c2-1.1,3.2-2.2,3.5-3.3c0.1-0.5,0.3-2.4,0.6-5.5c0.3-3.1,0.6-7.8,1-13.9
			c-7.5-1.4-11.3-4.2-11.3-8.6c0.1-4,2.5-7.1,7.2-9.4l13.1-5.3c2.6-1.4,5.5-2.6,8.6-3.7c3.1-1.1,6.6-2.2,10.4-3.3
			c3.4-1,6.8-1.8,10-2.7s6.6-1.6,10-2.5c0.3-0.1,1.1-0.2,2.5-0.2c3.7,0,8,1.4,12.9,4.3c0.1,0.5,0.5,1.6,1,3.1
			c0.5,1.5,0.8,2.6,0.8,3.3c0,1.2-0.5,2.1-1.4,2.7c-2.6,1.1-5.7,2.2-9.4,3.4c-3.7,1.2-8,2.4-12.9,3.8c-4.9,1.4-9.2,2.6-12.9,3.8
			c-3.7,1.2-6.8,2.3-9.4,3.4c-0.5,1.6-1.1,4.4-1.5,8.4c-0.5,4-0.9,9.1-1.1,15.4c2.2,0.8,4.7,1.2,7.6,1.2c1.1,0,2.4-0.1,4-0.3
			c1.6-0.2,3.4-0.4,5.6-0.7c2.2-0.3,4.1-0.5,5.6-0.7c1.6-0.2,2.9-0.3,4-0.3c3.8,0,7.1,0.8,9.8,2.5c1.9,2.7,2.9,4.5,2.9,5.3
			c0,1-0.5,1.7-1.4,2.3c-0.1,0.1-0.4,0.4-0.9,0.8c-0.5,0.4-1.1,1.1-1.9,2c-0.8,1.1-2.2,1.6-4.1,1.6c-2.9,0.5-8.1,1-15.8,1.2
			c-6.4,0.3-11.5,1.1-15.4,2.5c-2.6,9.6-3.9,17.5-3.9,24c0,3.7,0.5,6.8,1.6,9.4c5.6,4,14.8,5.9,27.7,5.9c1,0,1.9,0,2.8-0.1
			c0.9-0.1,1.9-0.1,3-0.1c1.1,0,2.3-0.5,3.5-1.5c1.2-1,2.3-1.5,3.1-1.5c0.3,0,0.5,0,0.6-0.1c0.1-0.1,0.3-0.1,0.6-0.1
			c3.3,0,5.4,2.9,6.4,8.8c0,0.3,0,0.5,0.1,0.8c0.1,0.3,0.1,0.5,0.1,0.8c0,1.9-0.6,3.6-1.7,5c-1.2,1.4-2.7,2.2-4.6,2.4
			c-1.2,0-2.5,0-3.7,0.1c-1.2,0.1-2.5,0.1-3.7,0.1c-13.1,0-25-1.4-35.6-4.1c-3.8-1-7.3-3.1-10.4-6.3c-3.1-3.3-4.9-7-5.3-11.1
			c-0.3-3-0.5-5.9-0.7-8.6c-0.2-2.7-0.3-5.5-0.3-8.2c0-2.7,0.1-5.4,0.3-7.9c0.2-2.5,0.4-4.9,0.7-7.3c-3.4-2.5-5.1-4.7-5.1-6.8V87.4z
			"/>
		<path class="st0" d="M230.9,163c-4.1-1.8-6.1-4-6.1-6.8c0-1.6,1-3.6,3.1-5.9c0.5-0.5,1.8-1,3.9-1.2c2-0.1,3.4-1,4.1-2.5
			c2.9-5.9,4.3-12,4.3-18.4c0-8.6-4.4-21.4-13.3-38.5c-8.7-16.9-13.1-30.4-13.1-40.6c0-8.3,1.6-15.8,4.9-22.3
			c3.7-7.5,8.9-12.9,15.8-16.2c3.4-1.5,6.5-2.3,9.2-2.3c5.7,0,10,1.6,12.9,4.7c1.4,1.4,2,2.9,2,4.5c0,2.7-2,5.1-5.9,7.2
			c-0.5,0.3-1.2,0.4-1.8,0.4c-0.8,0-1.4-0.1-1.6-0.2c-1.5-0.5-2.5-0.8-3.1-0.8c-0.8,0-1.6,0.4-2.5,1.2c-7.4,7.4-11.1,16.4-11.1,27
			c0,4,0.6,7.6,1.8,11.1c0.3,0.7,1.7,3.7,4.3,9c2.6,5.3,6.4,12.9,11.3,22.7c6.6,13.1,9.8,24.2,9.8,33.4c0,7.5-1.8,14.7-5.5,21.7
			c-1.2,2.3-4.3,5.3-9.2,9c-4,2.9-7.5,4.3-10.7,4.3C233,163.6,231.9,163.4,230.9,163z"/>
		<path class="st0" d="M268.4,150.7c0-5.3,1.5-11.7,4.5-19c4.1-10,6.3-17.2,6.8-21.7c0-1.1-0.9-2.3-2.7-3.7
			c-1.9-1.5-2.9-2.7-2.9-3.5s0.3-1.5,0.8-2c0.5-0.8,2-1.4,4.3-1.8c2.3-0.5,3.6-1.3,3.9-2.3c2.5-6.7,6.3-19.4,11.7-38.1
			c2.3-8.2,4.5-15.3,6.5-21.4c2-6.1,3.9-11.3,5.6-15.7c0.8-1.9,2.5-2.9,5.1-2.9c1.9,0,3.6,0.6,5.1,1.8c3.8,3.3,6.3,8.2,7.4,14.7
			c0.4,2.7,0.8,5.5,1.2,8.4c0.4,2.9,0.7,5.7,1,8.4c3.4,16.1,6.9,30.8,10.4,43.9c3.5,13.2,7.2,25.1,10.9,35.7
			c0.8,2.3,1.2,4.2,1.2,5.7c0,2.7-1.2,5.1-3.5,7.2c-2.2,1.9-3.8,2.9-4.7,2.9c-6.7-1.2-10.9-6.6-12.7-16.2c-1.8-10.4-4-19-6.8-26
			l-13.9,1.2c-5.3,0.7-9.5,2.3-12.5,4.9c-0.7,2.2-1.5,5.1-2.6,8.8c-1,3.7-2.2,8.3-3.4,13.7c-2.3,10.1-4.6,17.7-6.8,22.7
			c-0.7,1.6-2,2.5-4.1,2.5c-0.4,0-0.9,0-1.3,0c-0.5,0-1-0.1-1.5-0.4c-4.5-1.4-6.9-3.4-7.2-6.1V150.7z M318.2,92.6
			c-0.3-2.7-0.6-5.5-1-8.3c-0.4-2.8-1-5.7-1.6-8.7c-0.7-2.7-1.3-5.5-1.9-8.2c-0.6-2.7-1.3-5.5-1.9-8.2c-4.1,11.5-7.6,22.8-10.7,34
			C303.2,92.8,308.9,92.6,318.2,92.6z"/>
		<path class="st0" d="M363.2,141.1v-4.5c0-5.9,0.2-12.6,0.5-20.2c0.3-7.6,0.9-16.1,1.7-25.5c2-22.7,3.1-39.1,3.1-49.4
			c0-3.5-0.1-6.9-0.2-10.1c-0.1-3.2-0.3-6.4-0.6-9.5c1.8-1.8,4-2.7,6.8-2.7c5.2,0,8.2,1.9,9,5.7c0,1.4,0,2.8,0.1,4.3
			c0.1,1.5,0.1,3.1,0.1,4.9c0,5.3-0.1,11.4-0.4,18.1c-0.3,6.8-0.7,14.4-1.2,23c-0.7,9.4-1.1,17.8-1.3,25.2
			c-0.2,7.4-0.3,13.8-0.3,19.3v5.7c3.5-1.4,8.5-4.2,15-8.6c3.4-2.3,6.3-4.3,8.7-5.8c2.4-1.6,4.3-2.7,5.8-3.4c0.7,0,1.9-0.1,3.6-0.4
			c1.7-0.3,3-0.4,3.8-0.4c2.7,0,4.7,1.1,5.9,3.3c0.8,1.6,1.2,3,1.2,4.1c0,1.4-0.4,2.5-1.2,3.5l-24,17c-4.6,3.3-9,6.1-13,8.6
			c-4,2.5-7.8,4.4-11.4,5.9c-0.8,0.4-1.6,0.6-2.5,0.6c-1.9,0-3.7-1.2-5.3-3.7L363.2,141.1z"/>
	</g>
	<g>
		<g>
			<defs>
				<rect id="SVGID_1_" x="9.2" y="48.2" width="100.8" height="88.9"/>
			</defs>
			<clipPath id="SVGID_2_">
				<use xlink:href="#SVGID_1_"  style="overflow:visible;"/>
			</clipPath>
			<path class="st1" d="M72.3,98.7c2.1,0,4.5-0.5,7.1-1.5C85,95.1,91,91,96.4,85.7C108,74.1,112.6,60.6,107,55
				c-0.3-0.3-0.6-0.6-1-0.8c-0.6-0.4-1.5-0.4-2,0.2L65.1,93.3c0,0,0,0.1-0.1,0.1c0,0-0.1,0-0.1,0.1l-4.3,4.3L44.1,81
				c2-2.5,3.1-5.6,3.1-8.9c0-3.8-1.5-7.3-4.2-10L29.7,48.8c-0.6-0.6-1.6-0.6-2.2,0c-0.6,0.6-0.6,1.6,0,2.2l13.4,13.4
				c2.1,2.1,3.2,4.8,3.2,7.8c0,2.4-0.8,4.7-2.2,6.6L19.6,56.4c-0.6-0.6-1.6-0.6-2.2,0c-0.6,0.6-0.6,1.6,0,2.2L39.6,81
				c-1.9,1.4-4.2,2.2-6.6,2.2c-2.9,0-5.7-1.2-7.8-3.2L11.9,66.6c-0.6-0.6-1.6-0.6-2.2,0c-0.6,0.6-0.6,1.6,0,2.2L23,82.2
				c2.7,2.7,6.2,4.2,10,4.2c3.2,0,6.3-1.1,8.8-3.1L58.4,100l-32.5,32.5c-0.6,0.6-0.6,1.6,0,2.2c0.3,0.3,0.7,0.5,1.1,0.5
				s0.8-0.2,1.1-0.5l32.5-32.5l32.2,32.5c0.3,0.3,0.7,0.5,1.1,0.5c0.4,0,0.8-0.2,1.1-0.5c0.6-0.6,0.6-1.6,0-2.2L62.9,100l3.4-3.3
				C67.8,98,69.8,98.7,72.3,98.7L72.3,98.7z M105.1,57.7c3.1,4.2-0.4,15.1-11,25.7c-5.1,5-10.7,8.9-15.8,10.8
				c-4.3,1.6-7.9,1.7-9.9,0.2L105.1,57.7z M105.1,57.7"/>
		</g>
	</g>
</g>
</svg>
